<svg xmlns="http://www.w3.org/2000/svg" width="256" height="256" viewBox="0 0 100 100"><rect width="100" height="100" rx="50" fill="#CB904D"></rect><path d="M73.90 35.65L73.90 35.65Q73.90 40.15 71.40 43.30Q68.90 46.45 64.40 48.25L64.40 48.25Q76 52.05 76 62.55L76 62.55Q76 72.45 68.65 77.20Q61.30 81.95 47.50 81.95L47.50 81.95Q45.80 81.95 43.50 81.85Q41.20 81.75 38.75 81.45Q36.30 81.15 33.90 80.70Q31.50 80.25 29.50 79.45L29.50 79.45Q24 77.35 24 72.15L24 72.15L24 25.45Q24 23.35 25.15 22.20Q26.30 21.05 28.30 20.35L28.30 20.35Q31.70 19.15 36.80 18.60Q41.90 18.05 47.30 18.05L47.30 18.05Q60.10 18.05 67 22.35Q73.90 26.65 73.90 35.65ZM58.10 61.75L58.10 61.75Q58.10 55.65 49.90 55.65L49.90 55.65L41 55.65L41 67.85Q42.40 68.25 44.60 68.40Q46.80 68.55 48.80 68.55L48.80 68.55Q52.80 68.55 55.45 66.90Q58.10 65.25 58.10 61.75ZM41 31.65L41 43.45L48.30 43.45Q52.60 43.45 54.55 41.85Q56.50 40.25 56.50 37.15L56.50 37.15Q56.50 34.45 54.25 32.85Q52 31.25 47.50 31.25L47.50 31.25Q46 31.25 44.05 31.35Q42.10 31.45 41 31.65L41 31.65Z" fill="#fff"></path></svg>
